<svg xmlns="http://www.w3.org/2000/svg" version="1.1" xmlns:xlink="http://www.w3.org/1999/xlink" xmlns:svgjs="http://svgjs.dev/svgjs" viewBox="0 0 800 800"><defs><linearGradient x1="50%" y1="0%" x2="50%" y2="100%" id="nnneon-grad"><stop stop-color="hsl(30, 100%, 50%)" stop-opacity="1" offset="0%"></stop><stop stop-color="hsl(30, 100%, 70%)" stop-opacity="1" offset="100%"></stop></linearGradient><filter id="nnneon-filter" x="-100%" y="-100%" width="400%" height="400%" filterUnits="objectBoundingBox" primitiveUnits="userSpaceOnUse" color-interpolation-filters="sRGB">
	<feGaussianBlur stdDeviation="41 3" x="0%" y="0%" width="100%" height="100%" in="SourceGraphic" edgeMode="none" result="blur"></feGaussianBlur></filter><filter id="nnneon-filter2" x="-100%" y="-100%" width="400%" height="400%" filterUnits="objectBoundingBox" primitiveUnits="userSpaceOnUse" color-interpolation-filters="sRGB">
	<feGaussianBlur stdDeviation="37 44" x="0%" y="0%" width="100%" height="100%" in="SourceGraphic" edgeMode="none" result="blur"></feGaussianBlur></filter></defs><g stroke-width="24.5" stroke="url(#nnneon-grad)" fill="none"><path d="M382.2274838881718 163.22081990076006C389.50860384835926 148.50788141911775 410.4913956290518 148.50788141911775 417.7725155892392 163.22081990076006L643.4178337018337 619.1910430284661C649.9395122282652 632.3692356361474 640.3503248297177 647.8138552902595 625.6473007271062 647.8138552902595H174.35269875030485C159.64967464769325 647.8138552902595 150.06048724914587 632.3692356361474 156.58216577557732 619.1910430284661L382.2274838881718 163.22081990076006Z " filter="url(#nnneon-filter)"></path><path d="M583.2274838881717 163.22081990076006C590.5086038483593 148.50788141911775 611.4913956290518 148.50788141911775 618.7725155892392 163.22081990076006L844.4178337018337 619.1910430284661C850.9395122282652 632.3692356361474 841.3503248297177 647.8138552902595 826.6473007271062 647.8138552902595H375.35269875030485C360.64967464769325 647.8138552902595 351.06048724914587 632.3692356361474 357.5821657755773 619.1910430284661L583.2274838881717 163.22081990076006Z " filter="url(#nnneon-filter2)" opacity="0.88"></path><path d="M181.22748388817178 163.22081990076006C188.50860384835926 148.50788141911775 209.4913956290518 148.50788141911775 216.77251558923922 163.22081990076006L442.41783370183373 619.1910430284661C448.93951222826524 632.3692356361474 439.3503248297177 647.8138552902595 424.6473007271062 647.8138552902595H-26.647301249695147C-41.350325352306754 647.8138552902595 -50.939512750854135 632.3692356361474 -44.41783422442268 619.1910430284661L181.22748388817178 163.22081990076006Z " filter="url(#nnneon-filter2)" opacity="0.88"></path><path d="M382.2274838881718 163.22081990076006C389.50860384835926 148.50788141911775 410.4913956290518 148.50788141911775 417.7725155892392 163.22081990076006L643.4178337018337 619.1910430284661C649.9395122282652 632.3692356361474 640.3503248297177 647.8138552902595 625.6473007271062 647.8138552902595H174.35269875030485C159.64967464769325 647.8138552902595 150.06048724914587 632.3692356361474 156.58216577557732 619.1910430284661L382.2274838881718 163.22081990076006Z "></path></g></svg>