<svg xmlns="http://www.w3.org/2000/svg" version="1.1" xmlns:xlink="http://www.w3.org/1999/xlink" xmlns:svgjs="http://svgjs.dev/svgjs" viewBox="0 0 1422 800"><defs><linearGradient x1="50%" y1="0%" x2="50%" y2="100%" id="oooscillate-grad"><stop stop-color="hsl(206, 75%, 49%)" stop-opacity="1" offset="0%"></stop><stop stop-color="hsl(331, 90%, 56%)" stop-opacity="1" offset="100%"></stop></linearGradient></defs><g stroke-width="9" stroke="url(#oooscillate-grad)" fill="none" stroke-linecap="round"><path d="M 0 5820 Q 355.5 -100 711 400 Q 1066.5 900 1422 5820" stroke-dasharray="25 12" opacity="0.05"></path><path d="M 0 5723 Q 355.5 -100 711 400 Q 1066.5 900 1422 5723" stroke-dasharray="79 75" opacity="0.07"></path><path d="M 0 5626 Q 355.5 -100 711 400 Q 1066.5 900 1422 5626" stroke-dasharray="58 71" opacity="0.08"></path><path d="M 0 5529 Q 355.5 -100 711 400 Q 1066.5 900 1422 5529" stroke-dasharray="5 16" opacity="0.10"></path><path d="M 0 5432 Q 355.5 -100 711 400 Q 1066.5 900 1422 5432" stroke-dasharray="81 32" opacity="0.11"></path><path d="M 0 5335 Q 355.5 -100 711 400 Q 1066.5 900 1422 5335" stroke-dasharray="60 61" opacity="0.13"></path><path d="M 0 5238 Q 355.5 -100 711 400 Q 1066.5 900 1422 5238" stroke-dasharray="5 47" opacity="0.15"></path><path d="M 0 5141 Q 355.5 -100 711 400 Q 1066.5 900 1422 5141" stroke-dasharray="25 18" opacity="0.16"></path><path d="M 0 5044 Q 355.5 -100 711 400 Q 1066.5 900 1422 5044" stroke-dasharray="37 15" opacity="0.18"></path><path d="M 0 4947 Q 355.5 -100 711 400 Q 1066.5 900 1422 4947" stroke-dasharray="71 20" opacity="0.19"></path><path d="M 0 4850 Q 355.5 -100 711 400 Q 1066.5 900 1422 4850" stroke-dasharray="25 53" opacity="0.21"></path><path d="M 0 4753 Q 355.5 -100 711 400 Q 1066.5 900 1422 4753" stroke-dasharray="3 89" opacity="0.23"></path><path d="M 0 4656 Q 355.5 -100 711 400 Q 1066.5 900 1422 4656" stroke-dasharray="31 52" opacity="0.24"></path><path d="M 0 4559 Q 355.5 -100 711 400 Q 1066.5 900 1422 4559" stroke-dasharray="36 59" opacity="0.26"></path><path d="M 0 4462 Q 355.5 -100 711 400 Q 1066.5 900 1422 4462" stroke-dasharray="78 37" opacity="0.28"></path><path d="M 0 4365 Q 355.5 -100 711 400 Q 1066.5 900 1422 4365" stroke-dasharray="85 7" opacity="0.29"></path><path d="M 0 4268 Q 355.5 -100 711 400 Q 1066.5 900 1422 4268" stroke-dasharray="49 89" opacity="0.31"></path><path d="M 0 4171 Q 355.5 -100 711 400 Q 1066.5 900 1422 4171" stroke-dasharray="75 55" opacity="0.32"></path><path d="M 0 4074 Q 355.5 -100 711 400 Q 1066.5 900 1422 4074" stroke-dasharray="27 39" opacity="0.34"></path><path d="M 0 3977 Q 355.5 -100 711 400 Q 1066.5 900 1422 3977" stroke-dasharray="66 73" opacity="0.36"></path><path d="M 0 3880 Q 355.5 -100 711 400 Q 1066.5 900 1422 3880" stroke-dasharray="27 67" opacity="0.37"></path><path d="M 0 3783 Q 355.5 -100 711 400 Q 1066.5 900 1422 3783" stroke-dasharray="58 17" opacity="0.39"></path><path d="M 0 3686 Q 355.5 -100 711 400 Q 1066.5 900 1422 3686" stroke-dasharray="5 33" opacity="0.40"></path><path d="M 0 3589 Q 355.5 -100 711 400 Q 1066.5 900 1422 3589" stroke-dasharray="32 86" opacity="0.42"></path><path d="M 0 3492 Q 355.5 -100 711 400 Q 1066.5 900 1422 3492" stroke-dasharray="21 46" opacity="0.44"></path><path d="M 0 3395 Q 355.5 -100 711 400 Q 1066.5 900 1422 3395" stroke-dasharray="75 24" opacity="0.45"></path><path d="M 0 3298 Q 355.5 -100 711 400 Q 1066.5 900 1422 3298" stroke-dasharray="39 60" opacity="0.47"></path><path d="M 0 3201 Q 355.5 -100 711 400 Q 1066.5 900 1422 3201" stroke-dasharray="73 26" opacity="0.48"></path><path d="M 0 3104 Q 355.5 -100 711 400 Q 1066.5 900 1422 3104" stroke-dasharray="21 60" opacity="0.50"></path><path d="M 0 3007 Q 355.5 -100 711 400 Q 1066.5 900 1422 3007" stroke-dasharray="38 86" opacity="0.52"></path><path d="M 0 2910 Q 355.5 -100 711 400 Q 1066.5 900 1422 2910" stroke-dasharray="44 62" opacity="0.53"></path><path d="M 0 2813 Q 355.5 -100 711 400 Q 1066.5 900 1422 2813" stroke-dasharray="2 1" opacity="0.55"></path><path d="M 0 2716 Q 355.5 -100 711 400 Q 1066.5 900 1422 2716" stroke-dasharray="44 40" opacity="0.57"></path><path d="M 0 2619 Q 355.5 -100 711 400 Q 1066.5 900 1422 2619" stroke-dasharray="26 35" opacity="0.58"></path><path d="M 0 2522 Q 355.5 -100 711 400 Q 1066.5 900 1422 2522" stroke-dasharray="74 19" opacity="0.60"></path><path d="M 0 2425 Q 355.5 -100 711 400 Q 1066.5 900 1422 2425" stroke-dasharray="2 20" opacity="0.61"></path><path d="M 0 2328 Q 355.5 -100 711 400 Q 1066.5 900 1422 2328" stroke-dasharray="62 79" opacity="0.63"></path><path d="M 0 2231 Q 355.5 -100 711 400 Q 1066.5 900 1422 2231" stroke-dasharray="51 82" opacity="0.65"></path><path d="M 0 2134 Q 355.5 -100 711 400 Q 1066.5 900 1422 2134" stroke-dasharray="17 66" opacity="0.66"></path><path d="M 0 2037 Q 355.5 -100 711 400 Q 1066.5 900 1422 2037" stroke-dasharray="77 89" opacity="0.68"></path><path d="M 0 1940 Q 355.5 -100 711 400 Q 1066.5 900 1422 1940" stroke-dasharray="70 64" opacity="0.69"></path><path d="M 0 1843 Q 355.5 -100 711 400 Q 1066.5 900 1422 1843" stroke-dasharray="74 54" opacity="0.71"></path><path d="M 0 1746 Q 355.5 -100 711 400 Q 1066.5 900 1422 1746" stroke-dasharray="75 40" opacity="0.73"></path><path d="M 0 1649 Q 355.5 -100 711 400 Q 1066.5 900 1422 1649" stroke-dasharray="40 48" opacity="0.74"></path><path d="M 0 1552 Q 355.5 -100 711 400 Q 1066.5 900 1422 1552" stroke-dasharray="73 74" opacity="0.76"></path><path d="M 0 1455 Q 355.5 -100 711 400 Q 1066.5 900 1422 1455" stroke-dasharray="86 27" opacity="0.77"></path><path d="M 0 1358 Q 355.5 -100 711 400 Q 1066.5 900 1422 1358" stroke-dasharray="10 29" opacity="0.79"></path><path d="M 0 1261 Q 355.5 -100 711 400 Q 1066.5 900 1422 1261" stroke-dasharray="21 82" opacity="0.81"></path><path d="M 0 1164 Q 355.5 -100 711 400 Q 1066.5 900 1422 1164" stroke-dasharray="47 40" opacity="0.82"></path><path d="M 0 1067 Q 355.5 -100 711 400 Q 1066.5 900 1422 1067" stroke-dasharray="70 84" opacity="0.84"></path><path d="M 0 970 Q 355.5 -100 711 400 Q 1066.5 900 1422 970" stroke-dasharray="21 2" opacity="0.86"></path><path d="M 0 873 Q 355.5 -100 711 400 Q 1066.5 900 1422 873" stroke-dasharray="82 83" opacity="0.87"></path><path d="M 0 776 Q 355.5 -100 711 400 Q 1066.5 900 1422 776" stroke-dasharray="65 6" opacity="0.89"></path><path d="M 0 679 Q 355.5 -100 711 400 Q 1066.5 900 1422 679" stroke-dasharray="43 34" opacity="0.90"></path><path d="M 0 582 Q 355.5 -100 711 400 Q 1066.5 900 1422 582" stroke-dasharray="11 11" opacity="0.92"></path><path d="M 0 485 Q 355.5 -100 711 400 Q 1066.5 900 1422 485" stroke-dasharray="47 52" opacity="0.94"></path><path d="M 0 388 Q 355.5 -100 711 400 Q 1066.5 900 1422 388" stroke-dasharray="12 30" opacity="0.95"></path><path d="M 0 291 Q 355.5 -100 711 400 Q 1066.5 900 1422 291" stroke-dasharray="64 9" opacity="0.97"></path><path d="M 0 194 Q 355.5 -100 711 400 Q 1066.5 900 1422 194" stroke-dasharray="64 50" opacity="0.98"></path></g></svg>